<?xml version="1.0"?>
<!DOCTYPE svg PUBLIC "-//W3C//DTD SVG 1.1//EN" "http://www.w3.org/Graphics/SVG/1.1/DTD/svg11.dtd">
<svg width="153.0mm" height="153.0mm" viewBox="0 0 153.0 153.0" xmlns="http://www.w3.org/2000/svg" version="1.1">
<g id="_____________" transform="translate(76.500000,76.500000) scale(1,-1)">
<path id="______________f0000"  d="M -75.0 75.0 L -75.0 75.0 L -12.5 75.0 L -12.5 75.0 L -75.0 75.0 Z " stroke="#191919" stroke-width="0.7 px" style="stroke-width:0.7;stroke-miterlimit:4;stroke-dasharray:none;stroke-linecap:square;fill:#727980;fill-opacity:1.0;fill-rule: evenodd"/>
<path id="______________f0001"  d="M -12.5 75.0 L -12.5 60.0 L -12.5 60.0 L -12.5 75.0 L -12.5 75.0 Z " stroke="#191919" stroke-width="0.7 px" style="stroke-width:0.7;stroke-miterlimit:4;stroke-dasharray:none;stroke-linecap:square;fill:#727980;fill-opacity:1.0;fill-rule: evenodd"/>
<path id="______________f0002"  d="M -12.5 60.0 L -12.5 60.0 L 12.5 60.0 L 12.5 60.0 L -12.5 60.0 Z " stroke="#191919" stroke-width="0.7 px" style="stroke-width:0.7;stroke-miterlimit:4;stroke-dasharray:none;stroke-linecap:square;fill:#727980;fill-opacity:1.0;fill-rule: evenodd"/>
<path id="______________f0003"  d="M 12.5 60.0 L 12.5 60.0 L 12.5 75.0 L 12.5 75.0 L 12.5 60.0 Z " stroke="#191919" stroke-width="0.7 px" style="stroke-width:0.7;stroke-miterlimit:4;stroke-dasharray:none;stroke-linecap:square;fill:#727980;fill-opacity:1.0;fill-rule: evenodd"/>
<path id="______________f0004"  d="M 12.5 75.0 L 12.5 75.0 L 75.0 75.0 L 75.0 75.0 L 12.5 75.0 Z " stroke="#191919" stroke-width="0.7 px" style="stroke-width:0.7;stroke-miterlimit:4;stroke-dasharray:none;stroke-linecap:square;fill:#727980;fill-opacity:1.0;fill-rule: evenodd"/>
<path id="______________f0005"  d="M 75.0 75.0 L 75.0 75.0 L 75.0 -75.0 L 75.0 -75.0 L 75.0 75.0 Z " stroke="#191919" stroke-width="0.7 px" style="stroke-width:0.7;stroke-miterlimit:4;stroke-dasharray:none;stroke-linecap:square;fill:#727980;fill-opacity:1.0;fill-rule: evenodd"/>
<path id="______________f0006"  d="M 75.0 -75.0 L 75.0 -75.0 L -75.0 -75.0 L -75.0 -75.0 L 75.0 -75.0 Z " stroke="#191919" stroke-width="0.7 px" style="stroke-width:0.7;stroke-miterlimit:4;stroke-dasharray:none;stroke-linecap:square;fill:#727980;fill-opacity:1.0;fill-rule: evenodd"/>
<path id="______________f0007"  d="M -75.0 -75.0 L -75.0 -75.0 L -75.0 75.0 L -75.0 75.0 L -75.0 -75.0 Z " stroke="#191919" stroke-width="0.7 px" style="stroke-width:0.7;stroke-miterlimit:4;stroke-dasharray:none;stroke-linecap:square;fill:#727980;fill-opacity:1.0;fill-rule: evenodd"/>
<circle cx="0.0" cy="-37.5" r="5.0" stroke="#191919" stroke-width="0.7 px" style="stroke-width:0.7;stroke-miterlimit:4;stroke-dasharray:none;stroke-linecap:square;fill:#727980"/>
<circle cx="0.0" cy="-37.5" r="5.0" stroke="#191919" stroke-width="0.7 px" style="stroke-width:0.7;stroke-miterlimit:4;stroke-dasharray:none;stroke-linecap:square;fill:#727980"/>
<circle cx="0.0" cy="-37.5" r="5.0" stroke="#191919" stroke-width="0.7 px" style="stroke-width:0.7;stroke-miterlimit:4;stroke-dasharray:none;stroke-linecap:square;fill:#727980"/>
<title>b'_____________'</title>
</g>
</svg>